# xmcd
#
# Track frame offsets: 
#        150
#        12054
#        32182
#        49202
#        66553
#        82984
#        100121
#        114317
#        130977
#        148163
#        161632
#        179089
#        198154
#        221998
#        242344
#
# Disc length: 3316 seconds
#
# Revision: 0
# Processed by: cddbd v1.5.2PL0 Copyright (c) Steve Scherf et al.
# Submitted via: ExactAudioCopy v0.99pb4
#
DISCID=d80cf20f
DTITLE=Keith Thompson - Steel Strings and Bruised Reed
DYEAR=2008
DGENRE=Blues
TTITLE0=Why Can't You Be Good
TTITLE1=Bad Rain
TTITLE2=Heart and Soul
TTITLE3=Not the Same As Love
TTITLE4=Choice
TTITLE5=Long Road Home
TTITLE6=You Don't Know Me
TTITLE7=Feel the Kiss
TTITLE8=Stealin' Back My Heart
TTITLE9=Preachin' the Blues
TTITLE10=All Comes Down
TTITLE11=Alright
TTITLE12=Sinner Boy
TTITLE13=All Rise
TTITLE14=Nothing Separates Us
EXTD=
EXTT0=
EXTT1=
EXTT2=
EXTT3=
EXTT4=
EXTT5=
EXTT6=
EXTT7=
EXTT8=
EXTT9=
EXTT10=
EXTT11=
EXTT12=
EXTT13=
EXTT14=
PLAYORDER=
